<svg id="svg" version="1.1" xmlns="http://www.w3.org/2000/svg" xmlns:xlink="http://www.w3.org/1999/xlink" width="400" height="400" viewBox="0, 0, 400,400"><g id="svgg"><path id="path0" d="M197.500 59.717 C 196.079 60.477,194.354 61.404,193.667 61.776 C 192.438 62.442,185.160 66.347,167.167 75.995 C 162.171 78.674,157.633 81.111,157.083 81.410 C 156.533 81.710,153.383 83.400,150.083 85.166 C 146.783 86.932,143.708 88.582,143.250 88.833 C 142.792 89.084,139.229 90.997,135.333 93.083 C 131.438 95.170,127.875 97.082,127.417 97.332 C 126.958 97.582,125.871 98.168,125.000 98.634 C 124.129 99.101,122.779 99.827,122.000 100.247 C 121.221 100.668,120.115 101.251,119.542 101.542 C 118.243 102.202,118.174 102.055,120.381 103.326 C 121.409 103.918,123.375 105.074,124.750 105.895 C 128.158 107.930,132.012 110.167,132.109 110.167 C 132.153 110.167,135.503 108.114,139.553 105.605 C 143.603 103.096,154.754 96.187,164.333 90.251 C 173.912 84.316,182.200 79.183,182.750 78.844 C 183.300 78.506,187.402 75.965,191.865 73.198 C 196.329 70.431,200.065 68.167,200.169 68.167 C 200.323 68.167,204.698 70.466,208.417 72.501 C 213.387 75.222,221.545 79.510,221.616 79.440 C 221.665 79.390,221.943 78.765,222.232 78.050 C 222.684 76.934,223.532 75.498,224.602 74.037 C 224.755 73.828,224.851 73.630,224.815 73.597 C 224.779 73.563,222.838 72.352,220.500 70.906 C 218.162 69.460,215.688 67.928,215.000 67.502 C 214.313 67.076,210.701 64.839,206.975 62.530 C 203.248 60.222,200.173 58.334,200.141 58.334 C 200.109 58.335,198.921 58.957,197.500 59.717 M235.188 74.079 C 225.755 76.224,223.981 89.233,232.508 93.739 C 236.264 95.724,240.044 95.433,244.093 92.846 C 244.409 92.644,268.409 108.222,269.083 109.067 C 269.211 109.227,269.699 109.010,271.167 108.139 C 272.221 107.514,274.599 106.121,276.452 105.043 C 278.305 103.965,279.824 103.040,279.827 102.987 C 279.831 102.934,272.626 99.314,263.817 94.941 C 250.276 88.221,247.818 86.948,247.913 86.704 C 247.974 86.546,248.064 85.779,248.112 85.000 C 248.539 78.098,241.961 72.539,235.188 74.079 M36.792 98.448 C 36.447 98.538,36.432 98.705,36.700 99.447 C 36.960 100.165,37.099 100.146,37.226 99.375 C 37.408 98.278,37.412 98.286,36.792 98.448 M323.333 189.246 C 322.554 189.454,320.454 189.973,318.667 190.401 C 316.879 190.829,314.620 191.374,313.647 191.613 L 311.878 192.047 311.936 193.482 C 311.968 194.271,312.073 197.617,312.168 200.917 C 312.264 204.217,312.413 209.204,312.501 212.000 C 312.588 214.796,312.738 219.596,312.833 222.667 C 313.130 232.213,313.327 238.483,313.414 241.083 C 313.460 242.458,313.575 246.171,313.670 249.333 C 313.766 252.496,313.916 257.131,314.005 259.634 C 314.094 262.137,314.167 264.620,314.167 265.152 L 314.167 266.119 311.792 267.589 C 310.485 268.398,308.854 269.407,308.167 269.833 C 307.479 270.258,303.429 272.767,299.167 275.408 C 294.904 278.049,287.723 282.497,283.208 285.292 C 278.694 288.087,275.000 290.448,275.000 290.538 C 275.000 290.628,275.216 290.975,275.481 291.309 C 275.961 291.915,277.001 293.836,277.324 294.713 L 277.495 295.176 278.206 294.814 C 278.868 294.478,287.799 289.689,303.500 281.251 C 307.121 279.306,312.858 276.232,316.250 274.421 C 319.642 272.610,322.468 271.080,322.531 271.022 C 322.636 270.925,322.713 268.888,323.166 254.167 C 323.255 251.279,323.404 246.479,323.497 243.500 C 323.589 240.521,323.741 235.608,323.833 232.583 C 323.926 229.558,324.076 224.683,324.167 221.750 C 324.258 218.817,324.408 213.979,324.501 211.000 C 324.907 197.883,325.002 194.900,325.105 191.958 C 325.197 189.339,325.178 188.836,324.983 188.851 C 324.855 188.861,324.112 189.039,323.333 189.246 M77.109 191.629 C 77.139 192.795,77.240 197.725,77.333 202.583 C 77.426 207.442,77.540 213.029,77.586 215.000 C 77.681 219.068,77.917 230.348,78.162 242.500 C 78.253 247.037,78.372 252.449,78.426 254.525 L 78.525 258.299 77.888 258.501 C 73.763 259.810,70.499 264.802,70.914 269.167 C 71.827 278.762,83.384 282.522,89.644 275.260 C 94.287 269.875,91.905 260.825,85.247 258.557 L 84.463 258.290 84.570 255.353 C 84.629 253.738,84.750 248.629,84.839 244.000 C 84.927 239.371,85.038 233.783,85.085 231.583 C 85.278 222.483,85.505 211.381,85.670 202.917 C 85.767 197.967,85.862 193.373,85.881 192.708 C 85.901 192.043,85.897 191.499,85.874 191.500 C 85.833 191.500,83.689 191.018,79.583 190.086 C 78.575 189.857,77.594 189.633,77.402 189.589 C 77.062 189.509,77.056 189.551,77.109 191.629 M97.433 269.724 C 97.037 274.486,94.375 279.087,90.542 281.633 C 89.456 282.354,89.445 282.294,90.794 283.021 C 91.412 283.354,96.042 285.837,101.083 288.540 C 109.547 293.077,117.147 297.154,131.750 304.994 C 134.867 306.667,138.054 308.376,138.833 308.790 C 139.612 309.205,140.625 309.750,141.083 310.000 C 142.262 310.645,143.313 311.210,150.083 314.833 C 153.383 316.600,156.533 318.288,157.083 318.586 C 157.633 318.884,160.108 320.214,162.583 321.542 C 170.575 325.830,182.718 332.347,190.833 336.705 C 195.188 339.043,199.071 341.118,199.463 341.317 L 200.177 341.679 207.963 336.857 C 212.246 334.206,219.350 329.805,223.750 327.078 C 239.986 317.016,247.942 312.088,248.917 311.489 C 249.467 311.150,250.998 310.199,252.319 309.374 L 254.722 307.875 255.603 308.593 C 265.934 317.007,279.274 302.539,269.918 293.068 C 262.202 285.258,249.198 293.002,252.255 303.586 C 252.339 303.879,251.939 304.144,249.134 305.652 C 246.175 307.243,238.120 311.566,217.583 322.583 C 213.275 324.895,207.635 327.922,205.051 329.310 C 202.466 330.698,200.268 331.833,200.166 331.833 C 200.064 331.833,196.329 329.570,191.865 326.803 C 187.402 324.037,183.188 321.426,182.500 321.001 C 180.104 319.519,147.519 299.332,138.917 294.000 C 134.150 291.045,126.950 286.584,122.917 284.086 C 118.883 281.587,111.983 277.311,107.583 274.583 C 103.183 271.854,99.125 269.339,98.564 268.993 L 97.545 268.365 97.433 269.724 " stroke="none" fill="#ccbc94" fill-rule="evenodd"></path><path id="path1" d="M229.906 76.875 L 229.417 77.417 229.958 76.927 C 230.463 76.471,230.577 76.333,230.448 76.333 C 230.419 76.333,230.175 76.577,229.906 76.875 M229.917 92.000 C 230.275 92.367,230.605 92.667,230.651 92.667 C 230.697 92.667,230.441 92.367,230.083 92.000 C 229.725 91.633,229.395 91.333,229.349 91.333 C 229.303 91.333,229.559 91.633,229.917 92.000 M237.128 95.121 C 237.428 95.158,237.878 95.157,238.128 95.119 C 238.378 95.081,238.133 95.051,237.583 95.052 C 237.033 95.053,236.828 95.084,237.128 95.121 M77.048 194.250 C 77.049 194.708,77.081 194.876,77.120 194.623 C 77.158 194.369,77.157 193.994,77.117 193.789 C 77.078 193.584,77.046 193.792,77.048 194.250 M85.883 194.500 C 85.883 195.004,85.915 195.210,85.953 194.958 C 85.991 194.706,85.991 194.294,85.953 194.042 C 85.915 193.790,85.883 193.996,85.883 194.500 M325.042 195.083 C 325.044 195.450,325.078 195.580,325.118 195.373 C 325.158 195.166,325.156 194.866,325.115 194.706 C 325.073 194.547,325.040 194.717,325.042 195.083 M311.872 195.333 C 311.872 195.654,311.906 195.785,311.948 195.625 C 311.990 195.465,311.990 195.202,311.948 195.042 C 311.906 194.881,311.872 195.012,311.872 195.333 M324.875 199.750 C 324.877 200.117,324.911 200.247,324.951 200.040 C 324.991 199.832,324.990 199.532,324.948 199.373 C 324.906 199.214,324.874 199.383,324.875 199.750 M312.042 199.917 C 312.044 200.283,312.078 200.414,312.118 200.206 C 312.158 199.999,312.156 199.699,312.115 199.540 C 312.073 199.380,312.040 199.550,312.042 199.917 M77.217 201.167 C 77.217 201.671,77.248 201.877,77.286 201.625 C 77.324 201.373,77.324 200.960,77.286 200.708 C 77.248 200.456,77.217 200.662,77.217 201.167 M85.712 201.500 C 85.712 201.912,85.745 202.081,85.784 201.875 C 85.824 201.669,85.824 201.331,85.784 201.125 C 85.745 200.919,85.712 201.088,85.712 201.500 M85.717 203.667 C 85.717 204.171,85.748 204.377,85.786 204.125 C 85.824 203.873,85.824 203.460,85.786 203.208 C 85.748 202.956,85.717 203.162,85.717 203.667 M324.705 204.500 C 324.705 204.821,324.740 204.952,324.782 204.792 C 324.823 204.631,324.823 204.369,324.782 204.208 C 324.740 204.048,324.705 204.179,324.705 204.500 M324.709 205.917 C 324.711 206.283,324.745 206.414,324.785 206.206 C 324.824 205.999,324.823 205.699,324.781 205.540 C 324.739 205.380,324.707 205.550,324.709 205.917 M312.209 206.083 C 312.211 206.450,312.245 206.580,312.285 206.373 C 312.324 206.166,312.323 205.866,312.281 205.706 C 312.239 205.547,312.207 205.717,312.209 206.083 M77.383 210.333 C 77.383 210.838,77.415 211.044,77.453 210.792 C 77.491 210.540,77.491 210.127,77.453 209.875 C 77.415 209.623,77.383 209.829,77.383 210.333 M85.550 210.667 C 85.550 211.171,85.581 211.377,85.619 211.125 C 85.658 210.873,85.658 210.460,85.619 210.208 C 85.581 209.956,85.550 210.162,85.550 210.667 M324.542 210.583 C 324.544 210.950,324.578 211.080,324.618 210.873 C 324.658 210.666,324.656 210.366,324.615 210.206 C 324.573 210.047,324.540 210.217,324.542 210.583 M312.375 210.750 C 312.377 211.117,312.411 211.247,312.451 211.040 C 312.491 210.832,312.490 210.532,312.448 210.373 C 312.406 210.214,312.374 210.383,312.375 210.750 M324.375 216.750 C 324.377 217.117,324.411 217.247,324.451 217.040 C 324.491 216.832,324.490 216.532,324.448 216.373 C 324.406 216.214,324.374 216.383,324.375 216.750 M312.542 216.917 C 312.544 217.283,312.578 217.414,312.618 217.206 C 312.658 216.999,312.656 216.699,312.615 216.540 C 312.573 216.380,312.540 216.550,312.542 216.917 M77.550 217.333 C 77.550 217.838,77.581 218.044,77.619 217.792 C 77.658 217.540,77.658 217.127,77.619 216.875 C 77.581 216.623,77.550 216.829,77.550 217.333 M85.381 217.750 C 85.382 218.208,85.415 218.376,85.453 218.123 C 85.491 217.869,85.490 217.494,85.451 217.289 C 85.411 217.084,85.380 217.292,85.381 217.750 M85.381 219.917 C 85.382 220.375,85.415 220.543,85.453 220.289 C 85.491 220.036,85.490 219.661,85.451 219.456 C 85.411 219.251,85.380 219.458,85.381 219.917 M324.205 221.333 C 324.205 221.654,324.240 221.785,324.282 221.625 C 324.323 221.465,324.323 221.202,324.282 221.042 C 324.240 220.881,324.205 221.012,324.205 221.333 M312.705 221.500 C 312.705 221.821,312.740 221.952,312.782 221.792 C 312.823 221.631,312.823 221.369,312.782 221.208 C 312.740 221.048,312.705 221.179,312.705 221.500 M324.039 226.000 C 324.039 226.321,324.073 226.452,324.115 226.292 C 324.157 226.131,324.157 225.869,324.115 225.708 C 324.073 225.548,324.039 225.679,324.039 226.000 M77.714 226.583 C 77.716 227.042,77.748 227.209,77.786 226.956 C 77.825 226.703,77.824 226.328,77.784 226.123 C 77.744 225.918,77.713 226.125,77.714 226.583 M85.217 226.833 C 85.217 227.338,85.248 227.544,85.286 227.292 C 85.324 227.040,85.324 226.627,85.286 226.375 C 85.248 226.123,85.217 226.329,85.217 226.833 M324.039 227.500 C 324.039 227.821,324.073 227.952,324.115 227.792 C 324.157 227.631,324.157 227.369,324.115 227.208 C 324.073 227.048,324.039 227.179,324.039 227.500 M312.875 227.750 C 312.877 228.117,312.911 228.247,312.951 228.040 C 312.991 227.832,312.990 227.532,312.948 227.373 C 312.906 227.214,312.874 227.383,312.875 227.750 M323.875 232.083 C 323.877 232.450,323.911 232.580,323.951 232.373 C 323.991 232.166,323.990 231.866,323.948 231.706 C 323.906 231.547,323.874 231.717,323.875 232.083 M313.039 232.333 C 313.039 232.654,313.073 232.785,313.115 232.625 C 313.157 232.465,313.157 232.202,313.115 232.042 C 313.073 231.881,313.039 232.012,313.039 232.333 M77.883 233.500 C 77.883 234.004,77.915 234.210,77.953 233.958 C 77.991 233.706,77.991 233.294,77.953 233.042 C 77.915 232.790,77.883 232.996,77.883 233.500 M85.050 233.833 C 85.050 234.338,85.081 234.544,85.119 234.292 C 85.158 234.040,85.158 233.627,85.119 233.375 C 85.081 233.123,85.050 233.329,85.050 233.833 M323.709 236.750 C 323.711 237.117,323.745 237.247,323.785 237.040 C 323.824 236.832,323.823 236.532,323.781 236.373 C 323.739 236.214,323.707 236.383,323.709 236.750 M313.205 238.500 C 313.205 238.821,313.240 238.952,313.282 238.792 C 313.323 238.631,313.323 238.369,313.282 238.208 C 313.240 238.048,313.205 238.179,313.205 238.500 M78.042 240.750 C 78.044 241.117,78.078 241.247,78.118 241.040 C 78.158 240.832,78.156 240.532,78.115 240.373 C 78.073 240.214,78.040 240.383,78.042 240.750 M78.050 242.833 C 78.050 243.338,78.081 243.544,78.119 243.292 C 78.158 243.040,78.158 242.627,78.119 242.375 C 78.081 242.123,78.050 242.329,78.050 242.833 M84.883 243.000 C 84.883 243.504,84.915 243.710,84.953 243.458 C 84.991 243.206,84.991 242.794,84.953 242.542 C 84.915 242.290,84.883 242.496,84.883 243.000 M323.542 242.917 C 323.544 243.283,323.578 243.414,323.618 243.206 C 323.658 242.999,323.656 242.699,323.615 242.540 C 323.573 242.380,323.540 242.550,323.542 242.917 M313.375 243.083 C 313.377 243.450,313.411 243.580,313.451 243.373 C 313.491 243.166,313.490 242.866,313.448 242.706 C 313.406 242.547,313.374 242.717,313.375 243.083 M323.375 247.583 C 323.377 247.950,323.411 248.080,323.451 247.873 C 323.491 247.666,323.490 247.366,323.448 247.206 C 323.406 247.047,323.374 247.217,323.375 247.583 M78.217 249.667 C 78.217 250.171,78.248 250.377,78.286 250.125 C 78.324 249.873,78.324 249.460,78.286 249.208 C 78.248 248.956,78.217 249.162,78.217 249.667 M313.539 249.333 C 313.539 249.654,313.573 249.785,313.615 249.625 C 313.657 249.465,313.657 249.202,313.615 249.042 C 313.573 248.881,313.539 249.012,313.539 249.333 M84.717 250.000 C 84.717 250.504,84.748 250.710,84.786 250.458 C 84.824 250.206,84.824 249.794,84.786 249.542 C 84.748 249.290,84.717 249.496,84.717 250.000 M323.209 253.750 C 323.211 254.117,323.245 254.247,323.285 254.040 C 323.324 253.832,323.323 253.532,323.281 253.373 C 323.239 253.214,323.207 253.383,323.209 253.750 M313.709 253.917 C 313.711 254.283,313.745 254.414,313.785 254.206 C 313.824 253.999,313.823 253.699,313.781 253.540 C 313.739 253.380,313.707 253.550,313.709 253.917 M78.379 256.833 C 78.379 257.246,78.411 257.415,78.451 257.208 C 78.491 257.002,78.491 256.665,78.451 256.458 C 78.411 256.252,78.379 256.421,78.379 256.833 M323.042 258.417 C 323.044 258.783,323.078 258.914,323.118 258.706 C 323.158 258.499,323.156 258.199,323.115 258.040 C 323.073 257.880,323.040 258.050,323.042 258.417 M313.872 260.167 C 313.872 260.487,313.906 260.619,313.948 260.458 C 313.990 260.298,313.990 260.035,313.948 259.875 C 313.906 259.715,313.872 259.846,313.872 260.167 M322.875 264.583 C 322.877 264.950,322.911 265.080,322.951 264.873 C 322.991 264.666,322.990 264.366,322.948 264.206 C 322.906 264.047,322.874 264.217,322.875 264.583 M314.042 264.750 C 314.044 265.117,314.078 265.247,314.118 265.040 C 314.158 264.832,314.156 264.532,314.115 264.373 C 314.073 264.214,314.040 264.383,314.042 264.750 M322.705 269.167 C 322.705 269.487,322.740 269.619,322.782 269.458 C 322.823 269.298,322.823 269.035,322.782 268.875 C 322.740 268.715,322.705 268.846,322.705 269.167 M275.667 291.833 C 275.862 292.108,276.060 292.333,276.106 292.333 C 276.152 292.333,276.029 292.108,275.833 291.833 C 275.638 291.558,275.440 291.333,275.394 291.333 C 275.348 291.333,275.471 291.558,275.667 291.833 M269.917 293.000 C 270.368 293.458,270.775 293.833,270.821 293.833 C 270.867 293.833,270.535 293.458,270.083 293.000 C 269.632 292.542,269.225 292.167,269.179 292.167 C 269.133 292.167,269.465 292.542,269.917 293.000 M254.240 293.542 L 253.750 294.083 254.292 293.594 C 254.797 293.138,254.910 293.000,254.781 293.000 C 254.752 293.000,254.509 293.244,254.240 293.542 M273.050 300.500 C 273.050 301.004,273.081 301.210,273.119 300.958 C 273.158 300.706,273.158 300.294,273.119 300.042 C 273.081 299.790,273.050 299.996,273.050 300.500 M251.712 300.500 C 251.712 300.912,251.745 301.081,251.784 300.875 C 251.824 300.669,251.824 300.331,251.784 300.125 C 251.745 299.919,251.712 300.087,251.712 300.500 M269.991 307.958 L 269.417 308.583 270.042 308.009 C 270.385 307.693,270.667 307.412,270.667 307.384 C 270.667 307.257,270.526 307.377,269.991 307.958 " stroke="none" fill="#787872" fill-rule="evenodd"></path><path id="path2" d="M85.875 192.250 C 85.877 192.617,85.911 192.747,85.951 192.540 C 85.991 192.332,85.990 192.032,85.948 191.873 C 85.906 191.714,85.874 191.883,85.875 192.250 M311.879 193.333 C 311.879 193.746,311.911 193.915,311.951 193.708 C 311.991 193.502,311.991 193.165,311.951 192.958 C 311.911 192.752,311.879 192.921,311.879 193.333 M324.879 198.167 C 324.879 198.579,324.911 198.748,324.951 198.542 C 324.991 198.335,324.991 197.998,324.951 197.792 C 324.911 197.585,324.879 197.754,324.879 198.167 M85.553 208.000 C 85.553 208.596,85.584 208.840,85.621 208.542 C 85.658 208.244,85.658 207.756,85.621 207.458 C 85.584 207.160,85.553 207.404,85.553 208.000 M324.542 208.750 C 324.544 209.117,324.578 209.247,324.618 209.040 C 324.658 208.832,324.656 208.532,324.615 208.373 C 324.573 208.214,324.540 208.383,324.542 208.750 M324.212 219.500 C 324.212 219.912,324.245 220.081,324.284 219.875 C 324.324 219.669,324.324 219.331,324.284 219.125 C 324.245 218.919,324.212 219.088,324.212 219.500 M85.218 224.083 C 85.219 224.633,85.250 224.838,85.287 224.539 C 85.325 224.239,85.324 223.789,85.286 223.539 C 85.248 223.288,85.217 223.533,85.218 224.083 M323.879 230.167 C 323.879 230.579,323.911 230.748,323.951 230.542 C 323.991 230.335,323.991 229.998,323.951 229.792 C 323.911 229.585,323.879 229.754,323.879 230.167 M77.887 231.167 C 77.887 231.762,77.917 232.006,77.954 231.708 C 77.991 231.410,77.991 230.923,77.954 230.625 C 77.917 230.327,77.887 230.571,77.887 231.167 M84.875 239.750 C 84.877 240.117,84.911 240.247,84.951 240.040 C 84.991 239.832,84.990 239.532,84.948 239.373 C 84.906 239.214,84.874 239.383,84.875 239.750 M78.221 247.250 C 78.222 247.892,78.252 248.134,78.288 247.788 C 78.324 247.442,78.324 246.917,78.287 246.621 C 78.250 246.325,78.221 246.608,78.221 247.250 M313.709 252.250 C 313.711 252.617,313.745 252.747,313.785 252.540 C 313.824 252.332,313.823 252.032,313.781 251.873 C 313.739 251.714,313.707 251.883,313.709 252.250 M314.048 263.083 C 314.049 263.542,314.081 263.709,314.120 263.456 C 314.158 263.203,314.157 262.828,314.117 262.623 C 314.078 262.418,314.046 262.625,314.048 263.083 M81.128 279.121 C 81.428 279.158,81.878 279.157,82.128 279.119 C 82.378 279.081,82.133 279.051,81.583 279.052 C 81.033 279.053,80.828 279.084,81.128 279.121 " stroke="none" fill="#b4a88c" fill-rule="evenodd"></path><path id="path3" d="M84.545 256.833 C 84.545 257.246,84.578 257.415,84.618 257.208 C 84.657 257.002,84.657 256.665,84.618 256.458 C 84.578 256.252,84.545 256.421,84.545 256.833 " stroke="none" fill="#9c9784" fill-rule="evenodd"></path><path id="path4" d="M77.039 192.167 C 77.039 192.487,77.073 192.619,77.115 192.458 C 77.157 192.298,77.157 192.035,77.115 191.875 C 77.073 191.715,77.039 191.846,77.039 192.167 M77.375 208.083 C 77.377 208.450,77.411 208.580,77.451 208.373 C 77.491 208.166,77.490 207.866,77.448 207.706 C 77.406 207.547,77.374 207.717,77.375 208.083 M77.705 224.000 C 77.705 224.321,77.740 224.452,77.782 224.292 C 77.823 224.131,77.823 223.869,77.782 223.708 C 77.740 223.548,77.705 223.679,77.705 224.000 " stroke="none" fill="#948c80" fill-rule="evenodd"></path></g></svg>