<svg version="1.1" id="Layer_1" xmlns="http://www.w3.org/2000/svg" xmlns:xlink="http://www.w3.org/1999/xlink" x="0px" y="0px"
	 width="100%" viewBox="0 0 1024 1024" enable-background="new 0 0 1024 1024" xml:space="preserve">
<path fill="#000000" opacity="1.000000" stroke="none" 
	d="
M1025.000000,407.000000 
	C1025.000000,612.979187 1025.000000,818.958435 1025.000000,1024.968750 
	C683.721985,1024.968750 342.443939,1024.968750 1.082946,1024.968750 
	C1.082946,683.756470 1.082946,342.512909 1.082946,1.134673 
	C342.209015,1.134673 683.418091,1.134673 1025.000000,1.134673 
	C1025.000000,132.695801 1025.000000,264.391937 1024.639160,396.507629 
	C1012.541687,388.607330 1001.280212,379.488525 988.954041,372.160706 
	C971.772217,361.946259 953.862549,352.939728 936.109985,343.713318 
	C931.541992,341.339203 926.395813,340.077484 920.826965,338.054749 
	C947.181519,307.487030 968.307068,273.782104 984.451904,236.607681 
	C982.146667,235.619415 980.298950,234.630402 978.334106,234.015610 
	C959.895447,228.246140 941.016907,224.613525 921.896423,221.904922 
	C906.019104,219.655762 890.145691,218.268997 874.121277,219.013000 
	C861.121277,219.616577 848.091064,219.945190 835.141235,221.128799 
	C825.637451,221.997421 816.028320,223.263824 806.845642,225.753082 
	C790.707825,230.127762 774.733765,235.209229 758.936096,240.699554 
	C748.340698,244.381882 737.204712,247.831009 728.010437,253.942078 
	C709.935425,265.955933 692.311584,278.899048 675.863098,293.041748 
	C658.198730,308.229858 642.741821,325.827759 629.932922,345.457489 
	C621.289307,358.703827 612.411926,371.877747 604.928528,385.778229 
	C597.617615,399.358307 591.875244,413.789703 585.679993,427.950439 
	C585.189453,429.071716 586.048401,431.650452 587.110352,432.452240 
	C600.311340,442.419128 613.268433,452.792755 627.105286,461.807892 
	C638.539429,469.257690 650.773438,475.655823 663.164856,481.419800 
	C682.790100,490.548676 703.465027,496.940948 724.553467,501.763275 
	C742.064758,505.767639 759.804749,508.724213 777.819214,508.912506 
	C789.900696,509.038788 801.989990,508.289398 814.077698,508.019104 
	C819.417603,507.899689 824.941528,508.873871 830.070374,507.826294 
	C843.985229,504.984222 857.953308,502.027985 871.483521,497.787140 
	C884.027527,493.855438 896.110535,488.389526 908.258057,483.270447 
	C928.314270,474.818573 947.482544,464.624725 965.725891,452.751221 
	C984.459351,440.558594 1001.990906,426.824402 1018.194702,411.396790 
	C1020.116516,409.567078 1022.715149,408.448334 1025.000000,407.000000 
M167.495682,219.000458 
	C154.071747,219.333694 140.640747,219.498672 127.226555,220.063385 
	C119.200813,220.401276 111.094337,220.766830 103.213638,222.178101 
	C89.069794,224.710968 74.999084,227.757492 61.043823,231.183990 
	C55.787403,232.474609 49.739616,232.851288 46.442131,237.096909 
	C62.391148,273.521790 82.606720,306.606110 108.480049,337.456207 
	C70.366127,353.896057 34.301445,373.083405 2.422258,400.334503 
	C4.499132,402.956177 6.186169,405.787445 8.521626,407.902893 
	C15.669525,414.377289 23.168945,420.462616 30.345314,426.906769 
	C45.361370,440.390778 61.509968,452.321808 78.554169,463.113007 
	C94.030563,472.911560 110.103455,481.561920 127.386078,487.600647 
	C139.031799,491.669800 151.082565,494.577148 162.940048,498.045502 
	C164.785080,498.585205 166.515854,499.609619 168.383896,499.960938 
	C178.745193,501.909546 188.798141,504.997772 199.594147,505.262329 
	C213.138550,505.594177 226.619736,507.988770 240.168808,508.866821 
	C246.876602,509.301514 253.699936,508.589600 260.427429,507.943085 
	C272.120850,506.819244 283.850250,505.780548 295.440552,503.929657 
	C324.299805,499.321045 351.405518,489.069305 377.674744,476.666809 
	C387.692566,471.937012 397.305786,466.147797 406.523407,459.975342 
	C418.837280,451.729614 430.568146,442.615326 442.589966,433.930237 
	C445.840759,431.581757 445.600494,428.938660 444.297760,425.523102 
	C436.782867,405.820892 427.014984,387.291046 416.085022,369.293030 
	C399.138641,341.387939 379.320709,315.876221 354.725311,294.264648 
	C349.854553,289.984772 344.767944,285.940155 339.652679,281.951447 
	C332.429779,276.319366 325.281891,270.558197 317.746521,265.368225 
	C308.582672,259.056641 299.209381,253.006851 289.598511,247.407013 
	C285.660339,245.112396 280.812500,244.425781 276.468170,242.772125 
	C265.985016,238.781738 255.722260,234.135529 245.069427,230.683167 
	C220.222824,222.630844 194.562790,219.334366 167.495682,219.000458 
M527.500000,633.999695 
	C548.583679,634.333557 569.668213,634.625427 590.750366,635.038086 
	C594.813538,635.117615 598.871643,635.626099 602.924194,636.018555 
	C606.288635,636.344421 608.210693,635.620300 608.085083,631.520691 
	C607.819824,622.865540 608.091125,614.195312 607.963745,605.533997 
	C607.897705,601.045288 607.450623,596.562073 607.191528,592.335693 
	C601.835938,591.459839 597.400757,590.443298 592.911499,590.059692 
	C582.913635,589.205261 572.892883,588.177490 562.874023,588.092041 
	C532.888184,587.836304 502.898651,587.979614 472.910675,588.028015 
	C469.617310,588.033386 467.174316,587.618347 468.259705,583.381592 
	C471.024567,572.589111 474.028198,561.846680 476.366974,550.961853 
	C477.263275,546.790466 478.920898,545.847290 482.931946,545.910339 
	C514.508789,546.407288 546.089233,546.677673 577.668823,546.989868 
	C584.083191,547.053284 590.498718,546.999023 598.768799,546.999023 
	C595.067078,538.620117 591.986633,531.456421 588.746033,524.365967 
	C585.481384,517.222839 582.057739,510.152405 578.900635,503.467041 
	C572.619202,502.963287 566.710510,502.101929 560.798584,502.078857 
	C525.479797,501.940948 490.160309,502.000305 454.841034,501.980499 
	C451.328430,501.978546 449.163025,503.325439 447.524475,506.762085 
	C440.072418,522.391968 434.316772,538.627991 430.114624,555.369812 
	C427.242004,566.814514 422.785614,578.012573 423.880676,590.251404 
	C424.196564,593.781921 423.235413,597.417236 422.957825,601.012085 
	C422.275665,609.846008 421.412476,618.676697 421.126984,627.524963 
	C421.021851,630.782532 422.481323,634.064148 422.971802,637.372620 
	C424.189148,645.583984 424.633881,653.963257 426.513123,662.012573 
	C431.046356,681.429810 439.254822,699.482971 448.664520,716.976746 
	C449.440613,718.419556 451.800354,719.861206 453.420105,719.856506 
	C461.677002,719.832703 469.931580,719.073608 478.188599,719.045288 
	C510.675323,718.933655 543.162781,719.027039 575.649475,718.918396 
	C577.270508,718.912964 579.787048,718.174866 580.365295,717.017700 
	C585.322815,707.096558 590.051880,697.054626 594.564270,686.921875 
	C595.884155,683.958069 596.289185,680.586914 597.441406,676.135742 
	C556.468140,676.135742 516.405396,676.135742 476.331177,676.135742 
	C473.076508,662.373169 469.929443,649.065735 466.410919,634.187439 
	C486.853088,633.780396 506.682220,634.089600 527.500000,633.999695 
M658.046753,630.544800 
	C666.250427,634.366455 674.465576,638.163574 682.655151,642.015259 
	C696.785706,648.660889 711.194702,654.794128 724.923035,662.189087 
	C734.829773,667.525635 733.849854,682.356445 727.772278,685.412109 
	C722.995361,687.813599 717.391663,689.552246 712.097229,689.716553 
	C703.812378,689.973694 695.470642,688.737610 687.168030,687.971680 
	C680.982971,687.401062 674.828064,686.512085 668.648499,685.872986 
	C655.800659,684.544128 642.954651,683.168396 630.080505,682.162109 
	C628.599670,682.046387 626.284729,683.801453 625.486450,685.293640 
	C622.216370,691.406128 619.254333,697.695007 616.427917,704.029968 
	C613.718567,710.102539 611.317139,716.312561 608.470703,723.212769 
	C618.137024,724.213318 626.898682,725.049866 635.642517,726.043152 
	C646.661804,727.294922 657.648560,728.856140 668.682861,729.943848 
	C678.167236,730.878906 687.778748,730.781372 697.190002,732.138855 
	C710.459900,734.052917 723.375061,732.609863 735.940125,728.838989 
	C751.884888,724.053772 763.671021,714.091797 771.181580,698.820801 
	C775.492249,690.056213 775.149841,681.068542 774.936951,671.970398 
	C774.635132,659.067078 769.990173,647.565979 761.426575,638.051208 
	C748.225952,623.384399 731.255432,614.364868 713.243652,606.870728 
	C702.606018,602.444824 692.113892,597.483887 682.090576,591.818420 
	C671.932251,586.076538 668.355347,575.796448 671.981079,566.315125 
	C672.337646,565.382751 673.296082,564.530762 674.183777,563.973999 
	C685.040405,557.163879 697.021545,559.214844 708.219727,561.383728 
	C729.099182,565.427673 749.661865,571.109131 770.351257,576.130310 
	C775.060425,577.273071 776.786011,575.818359 775.988464,571.190491 
	C774.008057,559.699463 771.919617,548.226501 770.032410,536.720337 
	C769.315186,532.347168 767.830566,529.733093 762.737488,528.828064 
	C750.803711,526.707397 739.026123,523.706360 727.187683,521.050964 
	C721.223022,519.713013 715.291504,517.376648 709.296021,517.205383 
	C697.065430,516.855896 684.707764,516.829590 672.572998,518.190674 
	C653.080566,520.377075 638.265259,530.659729 627.922058,547.372131 
	C619.316284,561.277283 618.885986,576.153931 623.726135,591.100586 
	C629.411926,608.658691 641.843689,620.863342 658.046753,630.544800 
M411.461426,522.031433 
	C413.597321,516.124207 415.733215,510.216980 418.235382,503.296783 
	C409.575500,504.610504 401.697845,505.791595 393.824921,507.003235 
	C382.736603,508.709656 371.625397,510.286011 360.572052,512.196289 
	C346.361877,514.652100 332.156342,517.172485 318.027008,520.049255 
	C299.835327,523.752991 281.754089,528.003967 263.544281,531.610046 
	C260.125732,532.287048 259.426880,534.111511 259.045227,536.618225 
	C257.023254,549.899475 255.108902,563.197083 252.975754,577.725159 
	C269.404266,574.421204 285.460571,571.192139 301.969391,567.872009 
	C302.358978,570.159302 303.046692,572.063049 302.937897,573.920166 
	C302.409393,582.942078 301.043091,591.958008 301.139496,600.963684 
	C301.307251,616.638062 301.547272,632.387268 303.214417,647.948975 
	C304.904510,663.725159 307.694305,679.464966 311.245941,694.935242 
	C314.223633,707.905640 318.970459,720.471680 322.988129,733.199646 
	C323.707062,735.477295 325.063263,736.432312 327.759033,735.752625 
	C333.557709,734.290466 339.465149,733.265198 345.312042,731.987671 
	C352.838440,730.343262 360.349091,728.626892 367.601776,727.000916 
	C363.740662,714.276428 359.438660,702.075500 356.402618,689.567322 
	C353.005005,675.569214 350.146393,661.375977 348.194580,647.111450 
	C346.595154,635.422729 346.556824,623.509888 346.028961,611.687317 
	C345.263824,594.550171 346.432281,577.568054 351.154724,560.992737 
	C351.509369,559.747986 353.392761,558.316284 354.754608,558.084961 
	C361.963501,556.860535 369.220062,555.882507 376.485107,555.032654 
	C383.477417,554.214722 390.513733,553.764832 397.496674,552.883179 
	C398.721527,552.728516 400.376129,551.474426 400.818085,550.334839 
	C404.366425,541.185120 407.671326,531.941040 411.461426,522.031433 
M463.000183,348.683594 
	C462.711853,359.631104 463.143494,370.170532 469.817230,379.874359 
	C476.316284,389.324066 483.811615,396.907623 494.581055,401.330536 
	C503.346741,404.930511 512.055481,405.453827 521.360046,404.129242 
	C535.253113,402.151428 547.368896,396.918579 555.741089,385.575897 
	C572.433289,362.961426 572.443848,329.473541 547.485535,310.251434 
	C532.610535,298.795166 514.994446,295.074310 497.199097,301.567169 
	C476.266296,309.204803 464.362518,324.907471 463.000183,348.683594 
M476.803375,249.950119 
	C473.667511,249.139526 470.531647,248.328934 466.454163,247.274933 
	C467.052246,251.321182 467.273407,253.920181 467.837067,256.442627 
	C470.505829,268.385712 473.298401,280.301086 475.969238,292.243744 
	C476.447388,294.381714 476.871246,295.642853 479.466614,294.228790 
	C482.278259,292.696930 485.215973,291.117950 488.294434,290.407166 
	C497.093933,288.375580 505.970215,285.485992 514.858093,285.331116 
	C525.816833,285.140167 536.543945,288.394989 546.622742,293.146637 
	C550.773865,295.103699 553.669922,293.933136 554.655273,289.668610 
	C557.782532,276.133545 560.708801,262.552032 563.872742,248.265976 
	C561.773743,248.159637 560.123169,247.726151 558.646667,248.060684 
	C551.571106,249.663849 544.440430,251.153275 537.540161,253.346451 
	C534.041931,254.458313 532.498657,253.572662 530.857056,250.689377 
	C527.033020,243.972702 523.036072,237.349335 518.933594,230.798172 
	C516.458923,226.846542 514.199036,226.875961 511.707397,230.744827 
	C507.421539,237.399567 503.145325,244.064896 499.073181,250.850677 
	C497.474640,253.514450 496.072327,254.250320 492.819550,253.182526 
	C487.944092,251.582047 482.732239,251.006317 476.803375,249.950119 
M509.473450,480.082306 
	C521.082947,472.367554 525.104126,462.211426 521.668518,448.527588 
	C520.120972,442.363892 517.112305,436.898804 510.459106,433.625854 
	C500.380676,428.667908 489.918976,430.401886 479.538513,430.145081 
	C478.704224,430.124481 477.495300,431.788422 477.016571,432.907471 
	C471.267944,446.344971 465.583130,459.810333 459.979126,473.308868 
	C458.330170,477.280731 456.988068,481.380005 455.292572,486.000854 
	C465.863617,486.000854 475.164764,486.012329 484.465820,485.997467 
	C493.009583,485.983826 501.243317,484.537262 509.473450,480.082306 
M518.293518,806.166992 
	C520.826599,802.987122 523.357422,799.805420 525.893188,796.627747 
	C533.809509,786.707336 541.796753,776.842346 549.605042,766.837585 
	C552.102295,763.637878 554.127258,760.069519 557.017639,755.684814 
	C528.516296,755.684814 501.380035,755.684814 474.243744,755.684814 
	C473.882874,756.131958 473.522034,756.579102 473.161163,757.026245 
	C475.333710,760.412415 477.252625,763.997742 479.725433,767.148193 
	C487.763916,777.389404 495.700226,787.741150 504.315369,797.484924 
	C507.860199,801.494141 509.753571,808.936340 518.293518,806.166992 
M527.000122,455.469696 
	C527.577271,465.647644 528.154358,475.825592 528.712097,485.662018 
	C536.205627,486.180237 542.505676,486.615906 549.233276,487.081146 
	C548.408081,479.063721 547.659546,471.791504 546.901428,464.426422 
	C547.654724,464.239868 548.100952,464.159088 548.527771,464.019165 
	C556.112427,461.533325 558.327942,458.467224 556.993591,451.959503 
	C556.321350,448.680725 555.344177,445.464417 554.306335,441.452423 
	C551.682251,442.255463 549.187195,443.227295 546.601196,443.741028 
	C544.709900,444.116760 542.696777,443.968079 540.741638,443.916168 
	C536.543335,443.804688 532.222778,443.016144 528.239441,443.860199 
	C527.260071,444.067688 527.369507,449.479767 527.011780,452.503143 
	C526.934204,453.158417 527.000366,453.830719 527.000122,455.469696 
M575.999084,480.293610 
	C575.974182,472.766571 573.937927,469.351807 568.352234,468.189880 
	C564.252991,467.337128 560.472839,468.524506 558.044800,471.963745 
	C555.458130,475.627777 554.597290,479.937317 558.248535,483.349976 
	C560.365356,485.328491 563.368896,486.555450 566.174988,487.554962 
	C570.844543,489.218201 575.015564,486.328156 575.999084,480.293610 
z"/>
<path fill="#E7D88E" opacity="1.000000" stroke="none" 
	d="
M1025.000000,406.545898 
	C1022.715149,408.448334 1020.116516,409.567078 1018.194702,411.396790 
	C1001.990906,426.824402 984.459351,440.558594 965.725891,452.751221 
	C947.482544,464.624725 928.314270,474.818573 908.258057,483.270447 
	C896.110535,488.389526 884.027527,493.855438 871.483521,497.787140 
	C857.953308,502.027985 843.985229,504.984222 830.070374,507.826294 
	C824.941528,508.873871 819.417603,507.899689 814.077698,508.019104 
	C801.989990,508.289398 789.900696,509.038788 777.819214,508.912506 
	C759.804749,508.724213 742.064758,505.767639 724.553467,501.763275 
	C703.465027,496.940948 682.790100,490.548676 663.164856,481.419800 
	C650.773438,475.655823 638.539429,469.257690 627.105286,461.807892 
	C613.268433,452.792755 600.311340,442.419128 587.110352,432.452240 
	C586.048401,431.650452 585.189453,429.071716 585.679993,427.950439 
	C591.875244,413.789703 597.617615,399.358307 604.928528,385.778229 
	C612.411926,371.877747 621.289307,358.703827 629.932922,345.457489 
	C642.741821,325.827759 658.198730,308.229858 675.863098,293.041748 
	C692.311584,278.899048 709.935425,265.955933 728.010437,253.942078 
	C737.204712,247.831009 748.340698,244.381882 758.936096,240.699554 
	C774.733765,235.209229 790.707825,230.127762 806.845642,225.753082 
	C816.028320,223.263824 825.637451,221.997421 835.141235,221.128799 
	C848.091064,219.945190 861.121277,219.616577 874.121277,219.013000 
	C890.145691,218.268997 906.019104,219.655762 921.896423,221.904922 
	C941.016907,224.613525 959.895447,228.246140 978.334106,234.015610 
	C980.298950,234.630402 982.146667,235.619415 984.451904,236.607681 
	C968.307068,273.782104 947.181519,307.487030 920.826965,338.054749 
	C926.395813,340.077484 931.541992,341.339203 936.109985,343.713318 
	C953.862549,352.939728 971.772217,361.946259 988.954041,372.160706 
	C1001.280212,379.488525 1012.541687,388.607330 1024.639160,396.963562 
	C1025.000000,400.030609 1025.000000,403.061188 1025.000000,406.545898 
M721.724976,445.005951 
	C720.302124,445.336761 718.893250,445.865173 717.454224,445.966553 
	C707.489685,446.668335 697.518921,447.281250 687.550110,447.922699 
	C689.505432,449.844757 691.635071,451.204407 693.959045,451.987244 
	C702.508789,454.867157 710.988831,458.124847 719.743225,460.187561 
	C734.052551,463.559143 748.468445,467.914490 762.996582,468.620850 
	C792.646423,470.062408 822.250488,469.412445 851.412231,461.254486 
	C873.998352,454.936066 896.225098,448.014862 917.372681,437.899841 
	C935.219238,429.363708 951.671387,418.700226 966.279419,404.187622 
	C960.862671,400.679321 955.705627,397.175812 950.391846,393.928772 
	C935.764465,384.990631 920.741394,376.817139 903.990662,372.542297 
	C897.886963,370.984589 891.442261,369.586334 885.759827,373.858215 
	C881.340088,377.180786 877.197083,380.879150 873.008728,384.500336 
	C860.086060,395.672913 845.885315,404.956116 830.862061,413.006683 
	C811.555908,423.352325 791.290222,431.426575 769.977295,436.347198 
	C754.367554,439.951019 738.437195,442.166229 721.724976,445.005951 
M857.840820,259.005096 
	C854.170654,259.674896 850.500183,260.914917 846.830383,260.912964 
	C833.041260,260.905640 819.439514,262.930328 806.243408,266.284180 
	C792.872070,269.682526 779.724487,274.385071 766.967712,279.691650 
	C738.146484,291.680756 715.280701,312.276978 692.575195,332.952911 
	C683.063049,341.614716 676.984741,353.264404 667.564941,362.040924 
	C666.687683,362.858246 666.508545,364.424713 665.437439,367.018402 
	C671.551147,363.667877 676.254333,360.917938 681.105835,358.460602 
	C705.185913,346.263428 729.993408,335.945343 756.249329,329.322021 
	C776.561279,324.198090 796.989929,320.058624 818.099365,321.014404 
	C831.109497,321.603424 844.121887,322.203644 857.115356,323.067932 
	C862.622986,323.434265 868.272278,323.861908 873.510498,325.424103 
	C878.063782,326.782043 880.770813,325.366150 883.311340,322.174591 
	C893.623047,309.220398 904.105896,296.395477 914.123840,283.217438 
	C918.613220,277.311920 922.155151,270.686249 926.671814,263.523438 
	C920.876221,262.547058 916.315796,261.570709 911.703796,261.066864 
	C907.933411,260.654938 904.085449,260.989594 900.301331,260.657867 
	C896.436157,260.319061 892.616150,259.170898 888.759949,259.080750 
	C878.773315,258.847321 868.777710,259.001312 857.840820,259.005096 
M690.991638,395.518585 
	C684.313660,399.231201 677.635620,402.943787 670.957642,406.656403 
	C671.201538,407.189423 671.445496,407.722443 671.689392,408.255463 
	C733.239990,412.346436 789.457458,397.129150 840.386230,361.585083 
	C827.853638,348.770050 730.037415,371.154358 690.991638,395.518585 
z"/>
<path fill="#E7D88F" opacity="1.000000" stroke="none" 
	d="
M167.994507,219.000427 
	C194.562790,219.334366 220.222824,222.630844 245.069427,230.683167 
	C255.722260,234.135529 265.985016,238.781738 276.468170,242.772125 
	C280.812500,244.425781 285.660339,245.112396 289.598511,247.407013 
	C299.209381,253.006851 308.582672,259.056641 317.746521,265.368225 
	C325.281891,270.558197 332.429779,276.319366 339.652679,281.951447 
	C344.767944,285.940155 349.854553,289.984772 354.725311,294.264648 
	C379.320709,315.876221 399.138641,341.387939 416.085022,369.293030 
	C427.014984,387.291046 436.782867,405.820892 444.297760,425.523102 
	C445.600494,428.938660 445.840759,431.581757 442.589966,433.930237 
	C430.568146,442.615326 418.837280,451.729614 406.523407,459.975342 
	C397.305786,466.147797 387.692566,471.937012 377.674744,476.666809 
	C351.405518,489.069305 324.299805,499.321045 295.440552,503.929657 
	C283.850250,505.780548 272.120850,506.819244 260.427429,507.943085 
	C253.699936,508.589600 246.876602,509.301514 240.168808,508.866821 
	C226.619736,507.988770 213.138550,505.594177 199.594147,505.262329 
	C188.798141,504.997772 178.745193,501.909546 168.383896,499.960938 
	C166.515854,499.609619 164.785080,498.585205 162.940048,498.045502 
	C151.082565,494.577148 139.031799,491.669800 127.386078,487.600647 
	C110.103455,481.561920 94.030563,472.911560 78.554169,463.113007 
	C61.509968,452.321808 45.361370,440.390778 30.345314,426.906769 
	C23.168945,420.462616 15.669525,414.377289 8.521626,407.902893 
	C6.186169,405.787445 4.499132,402.956177 2.422258,400.334503 
	C34.301445,373.083405 70.366127,353.896057 108.480049,337.456207 
	C82.606720,306.606110 62.391148,273.521790 46.442131,237.096909 
	C49.739616,232.851288 55.787403,232.474609 61.043823,231.183990 
	C74.999084,227.757492 89.069794,224.710968 103.213638,222.178101 
	C111.094337,220.766830 119.200813,220.401276 127.226555,220.063385 
	C140.640747,219.498672 154.071747,219.333694 167.994507,219.000427 
M88.003708,390.494293 
	C80.644791,394.478424 73.285866,398.462555 64.785187,403.064850 
	C79.311546,416.898010 96.094452,426.106110 112.783249,435.204712 
	C168.900299,465.799377 228.246902,477.945770 291.661499,464.970428 
	C309.880402,461.242584 327.871185,456.672424 344.808807,448.459656 
	C343.677063,447.521667 342.642853,447.062408 341.595734,447.030731 
	C329.026123,446.650482 316.454498,446.337219 303.883636,445.998108 
	C300.276550,445.900787 296.651794,446.333679 293.282715,444.213776 
	C291.872894,443.326660 289.873627,443.379456 288.144257,442.996399 
	C277.097137,440.549408 265.812042,438.859924 255.056442,435.483765 
	C236.205231,429.566376 217.737808,422.662628 200.191315,413.202179 
	C179.996063,402.313538 161.725845,389.028137 145.043335,373.435303 
	C141.553589,370.173462 138.061127,368.928741 133.531891,370.877228 
	C118.582253,377.308807 103.599823,383.664185 88.003708,390.494293 
M276.425873,330.005829 
	C277.340820,330.327606 278.240753,330.703186 279.172943,330.963013 
	C291.679077,334.449066 304.481354,336.947388 316.300873,342.668518 
	C326.906891,347.802277 337.622284,352.710175 348.293060,357.709900 
	C353.015686,359.922668 357.747284,362.116241 363.135651,364.626373 
	C362.829834,363.099426 362.887451,362.522186 362.626923,362.213440 
	C356.829926,355.344421 351.069611,348.441711 345.127014,341.699921 
	C343.430573,339.775330 341.186096,338.333832 338.490631,336.084839 
	C337.577972,334.682922 336.492706,331.847504 334.464417,330.118103 
	C328.238495,324.809723 323.406708,318.318939 315.984924,313.832611 
	C304.806946,307.075775 295.962738,296.639587 284.054321,290.613800 
	C273.071808,285.056488 261.938629,279.796875 251.226181,274.578735 
	C250.561005,276.388580 250.269348,277.182068 249.977707,277.975586 
	C249.321121,277.494843 248.598953,277.081451 248.021591,276.519318 
	C246.816055,275.345612 245.897949,273.420380 244.493073,272.980011 
	C233.447815,269.517639 222.479111,265.491669 211.165497,263.291565 
	C199.019638,260.929626 186.539612,260.189301 174.172836,259.117188 
	C170.309540,258.782288 166.259705,260.337708 162.433945,259.876801 
	C146.420792,257.947540 130.521744,258.816162 114.678902,261.221130 
	C111.057945,261.770813 107.611870,263.472473 103.667877,264.782623 
	C105.913391,268.796204 107.248398,272.011993 109.287857,274.691650 
	C121.561684,290.818298 134.012924,306.809814 146.363434,322.878357 
	C148.520767,325.685150 151.116760,326.327271 154.583282,325.835510 
	C166.993027,324.074829 179.404984,321.796570 191.885971,321.215790 
	C205.258286,320.593567 218.724579,321.387451 232.120438,322.109497 
	C239.723557,322.519318 247.318283,323.746490 254.823593,325.116241 
	C261.804901,326.390350 268.662628,328.341766 276.425873,330.005829 
M342.446472,409.000244 
	C347.435150,408.639496 352.423828,408.278748 358.933441,407.808014 
	C306.742096,372.581238 251.676819,353.065918 188.991699,359.626892 
	C190.440964,361.803955 192.005447,363.780365 194.036865,364.935852 
	C205.600189,371.513306 217.341125,377.778839 228.896744,384.369446 
	C247.525604,394.994171 267.805969,400.264435 288.716431,404.128113 
	C306.204559,407.359436 323.799316,408.309418 342.446472,409.000244 
z"/>
<path fill="#E7D88E" opacity="1.000000" stroke="none" 
	d="
M527.000000,633.999451 
	C506.682220,634.089600 486.853088,633.780396 466.410919,634.187439 
	C469.929443,649.065735 473.076508,662.373169 476.331177,676.135742 
	C516.405396,676.135742 556.468140,676.135742 597.441406,676.135742 
	C596.289185,680.586914 595.884155,683.958069 594.564270,686.921875 
	C590.051880,697.054626 585.322815,707.096558 580.365295,717.017700 
	C579.787048,718.174866 577.270508,718.912964 575.649475,718.918396 
	C543.162781,719.027039 510.675323,718.933655 478.188599,719.045288 
	C469.931580,719.073608 461.677002,719.832703 453.420105,719.856506 
	C451.800354,719.861206 449.440613,718.419556 448.664520,716.976746 
	C439.254822,699.482971 431.046356,681.429810 426.513123,662.012573 
	C424.633881,653.963257 424.189148,645.583984 422.971802,637.372620 
	C422.481323,634.064148 421.021851,630.782532 421.126984,627.524963 
	C421.412476,618.676697 422.275665,609.846008 422.957825,601.012085 
	C423.235413,597.417236 424.196564,593.781921 423.880676,590.251404 
	C422.785614,578.012573 427.242004,566.814514 430.114624,555.369812 
	C434.316772,538.627991 440.072418,522.391968 447.524475,506.762085 
	C449.163025,503.325439 451.328430,501.978546 454.841034,501.980499 
	C490.160309,502.000305 525.479797,501.940948 560.798584,502.078857 
	C566.710510,502.101929 572.619202,502.963287 578.900635,503.467041 
	C582.057739,510.152405 585.481384,517.222839 588.746033,524.365967 
	C591.986633,531.456421 595.067078,538.620117 598.768799,546.999023 
	C590.498718,546.999023 584.083191,547.053284 577.668823,546.989868 
	C546.089233,546.677673 514.508789,546.407288 482.931946,545.910339 
	C478.920898,545.847290 477.263275,546.790466 476.366974,550.961853 
	C474.028198,561.846680 471.024567,572.589111 468.259705,583.381592 
	C467.174316,587.618347 469.617310,588.033386 472.910675,588.028015 
	C502.898651,587.979614 532.888184,587.836304 562.874023,588.092041 
	C572.892883,588.177490 582.913635,589.205261 592.911499,590.059692 
	C597.400757,590.443298 601.835938,591.459839 607.191528,592.335693 
	C607.450623,596.562073 607.897705,601.045288 607.963745,605.533997 
	C608.091125,614.195312 607.819824,622.865540 608.085083,631.520691 
	C608.210693,635.620300 606.288635,636.344421 602.924194,636.018555 
	C598.871643,635.626099 594.813538,635.117615 590.750366,635.038086 
	C569.668213,634.625427 548.583679,634.333557 527.000000,633.999451 
z"/>
<path fill="#E7D88F" opacity="1.000000" stroke="none" 
	d="
M657.780884,630.277283 
	C641.843689,620.863342 629.411926,608.658691 623.726135,591.100586 
	C618.885986,576.153931 619.316284,561.277283 627.922058,547.372131 
	C638.265259,530.659729 653.080566,520.377075 672.572998,518.190674 
	C684.707764,516.829590 697.065430,516.855896 709.296021,517.205383 
	C715.291504,517.376648 721.223022,519.713013 727.187683,521.050964 
	C739.026123,523.706360 750.803711,526.707397 762.737488,528.828064 
	C767.830566,529.733093 769.315186,532.347168 770.032410,536.720337 
	C771.919617,548.226501 774.008057,559.699463 775.988464,571.190491 
	C776.786011,575.818359 775.060425,577.273071 770.351257,576.130310 
	C749.661865,571.109131 729.099182,565.427673 708.219727,561.383728 
	C697.021545,559.214844 685.040405,557.163879 674.183777,563.973999 
	C673.296082,564.530762 672.337646,565.382751 671.981079,566.315125 
	C668.355347,575.796448 671.932251,586.076538 682.090576,591.818420 
	C692.113892,597.483887 702.606018,602.444824 713.243652,606.870728 
	C731.255432,614.364868 748.225952,623.384399 761.426575,638.051208 
	C769.990173,647.565979 774.635132,659.067078 774.936951,671.970398 
	C775.149841,681.068542 775.492249,690.056213 771.181580,698.820801 
	C763.671021,714.091797 751.884888,724.053772 735.940125,728.838989 
	C723.375061,732.609863 710.459900,734.052917 697.190002,732.138855 
	C687.778748,730.781372 678.167236,730.878906 668.682861,729.943848 
	C657.648560,728.856140 646.661804,727.294922 635.642517,726.043152 
	C626.898682,725.049866 618.137024,724.213318 608.470703,723.212769 
	C611.317139,716.312561 613.718567,710.102539 616.427917,704.029968 
	C619.254333,697.695007 622.216370,691.406128 625.486450,685.293640 
	C626.284729,683.801453 628.599670,682.046387 630.080505,682.162109 
	C642.954651,683.168396 655.800659,684.544128 668.648499,685.872986 
	C674.828064,686.512085 680.982971,687.401062 687.168030,687.971680 
	C695.470642,688.737610 703.812378,689.973694 712.097229,689.716553 
	C717.391663,689.552246 722.995361,687.813599 727.772278,685.412109 
	C733.849854,682.356445 734.829773,667.525635 724.923035,662.189087 
	C711.194702,654.794128 696.785706,648.660889 682.655151,642.015259 
	C674.465576,638.163574 666.250427,634.366455 657.780884,630.277283 
z"/>
<path fill="#E7D88F" opacity="1.000000" stroke="none" 
	d="
M411.256042,522.378601 
	C407.671326,531.941040 404.366425,541.185120 400.818085,550.334839 
	C400.376129,551.474426 398.721527,552.728516 397.496674,552.883179 
	C390.513733,553.764832 383.477417,554.214722 376.485107,555.032654 
	C369.220062,555.882507 361.963501,556.860535 354.754608,558.084961 
	C353.392761,558.316284 351.509369,559.747986 351.154724,560.992737 
	C346.432281,577.568054 345.263824,594.550171 346.028961,611.687317 
	C346.556824,623.509888 346.595154,635.422729 348.194580,647.111450 
	C350.146393,661.375977 353.005005,675.569214 356.402618,689.567322 
	C359.438660,702.075500 363.740662,714.276428 367.601776,727.000916 
	C360.349091,728.626892 352.838440,730.343262 345.312042,731.987671 
	C339.465149,733.265198 333.557709,734.290466 327.759033,735.752625 
	C325.063263,736.432312 323.707062,735.477295 322.988129,733.199646 
	C318.970459,720.471680 314.223633,707.905640 311.245941,694.935242 
	C307.694305,679.464966 304.904510,663.725159 303.214417,647.948975 
	C301.547272,632.387268 301.307251,616.638062 301.139496,600.963684 
	C301.043091,591.958008 302.409393,582.942078 302.937897,573.920166 
	C303.046692,572.063049 302.358978,570.159302 301.969391,567.872009 
	C285.460571,571.192139 269.404266,574.421204 252.975754,577.725159 
	C255.108902,563.197083 257.023254,549.899475 259.045227,536.618225 
	C259.426880,534.111511 260.125732,532.287048 263.544281,531.610046 
	C281.754089,528.003967 299.835327,523.752991 318.027008,520.049255 
	C332.156342,517.172485 346.361877,514.652100 360.572052,512.196289 
	C371.625397,510.286011 382.736603,508.709656 393.824921,507.003235 
	C401.697845,505.791595 409.575500,504.610504 418.235382,503.296783 
	C415.733215,510.216980 413.597321,516.124207 411.256042,522.378601 
z"/>
<path fill="#E7D88F" opacity="1.000000" stroke="none" 
	d="
M463.000244,348.208221 
	C464.362518,324.907471 476.266296,309.204803 497.199097,301.567169 
	C514.994446,295.074310 532.610535,298.795166 547.485535,310.251434 
	C572.443848,329.473541 572.433289,362.961426 555.741089,385.575897 
	C547.368896,396.918579 535.253113,402.151428 521.360046,404.129242 
	C512.055481,405.453827 503.346741,404.930511 494.581055,401.330536 
	C483.811615,396.907623 476.316284,389.324066 469.817230,379.874359 
	C463.143494,370.170532 462.711853,359.631104 463.000244,348.208221 
z"/>
<path fill="#E8D98F" opacity="1.000000" stroke="none" 
	d="
M477.233398,249.972443 
	C482.732239,251.006317 487.944092,251.582047 492.819550,253.182526 
	C496.072327,254.250320 497.474640,253.514450 499.073181,250.850677 
	C503.145325,244.064896 507.421539,237.399567 511.707397,230.744827 
	C514.199036,226.875961 516.458923,226.846542 518.933594,230.798172 
	C523.036072,237.349335 527.033020,243.972702 530.857056,250.689377 
	C532.498657,253.572662 534.041931,254.458313 537.540161,253.346451 
	C544.440430,251.153275 551.571106,249.663849 558.646667,248.060684 
	C560.123169,247.726151 561.773743,248.159637 563.872742,248.265976 
	C560.708801,262.552032 557.782532,276.133545 554.655273,289.668610 
	C553.669922,293.933136 550.773865,295.103699 546.622742,293.146637 
	C536.543945,288.394989 525.816833,285.140167 514.858093,285.331116 
	C505.970215,285.485992 497.093933,288.375580 488.294434,290.407166 
	C485.215973,291.117950 482.278259,292.696930 479.466614,294.228790 
	C476.871246,295.642853 476.447388,294.381714 475.969238,292.243744 
	C473.298401,280.301086 470.505829,268.385712 467.837067,256.442627 
	C467.273407,253.920181 467.052246,251.321182 466.454163,247.274933 
	C470.531647,248.328934 473.667511,249.139526 477.233398,249.972443 
z"/>
<path fill="#E9DA8F" opacity="1.000000" stroke="none" 
	d="
M509.199341,480.342529 
	C501.243317,484.537262 493.009583,485.983826 484.465820,485.997467 
	C475.164764,486.012329 465.863617,486.000854 455.292572,486.000854 
	C456.988068,481.380005 458.330170,477.280731 459.979126,473.308868 
	C465.583130,459.810333 471.267944,446.344971 477.016571,432.907471 
	C477.495300,431.788422 478.704224,430.124481 479.538513,430.145081 
	C489.918976,430.401886 500.380676,428.667908 510.459106,433.625854 
	C517.112305,436.898804 520.120972,442.363892 521.668518,448.527588 
	C525.104126,462.211426 521.082947,472.367554 509.199341,480.342529 
M485.857727,467.997131 
	C487.688171,467.998260 489.523102,468.083313 491.348297,467.985962 
	C498.969818,467.579346 502.455292,464.953888 504.262207,458.351166 
	C505.098328,455.295868 501.585938,447.972107 498.830078,447.024536 
	C494.819000,445.645447 490.863007,447.559448 489.033264,451.880219 
	C487.715790,454.991302 486.290527,458.092377 485.386383,461.330017 
	C484.803986,463.415436 485.078186,465.740021 485.857727,467.997131 
z"/>
<path fill="#E8D88E" opacity="1.000000" stroke="none" 
	d="
M518.046997,806.479248 
	C509.753571,808.936340 507.860199,801.494141 504.315369,797.484924 
	C495.700226,787.741150 487.763916,777.389404 479.725433,767.148193 
	C477.252625,763.997742 475.333710,760.412415 473.161163,757.026245 
	C473.522034,756.579102 473.882874,756.131958 474.243744,755.684814 
	C501.380035,755.684814 528.516296,755.684814 557.017639,755.684814 
	C554.127258,760.069519 552.102295,763.637878 549.605042,766.837585 
	C541.796753,776.842346 533.809509,786.707336 525.893188,796.627747 
	C523.357422,799.805420 520.826599,802.987122 518.046997,806.479248 
z"/>
<path fill="#E8D98E" opacity="1.000000" stroke="none" 
	d="
M527.000244,454.982422 
	C527.000366,453.830719 526.934204,453.158417 527.011780,452.503143 
	C527.369507,449.479767 527.260071,444.067688 528.239441,443.860199 
	C532.222778,443.016144 536.543335,443.804688 540.741638,443.916168 
	C542.696777,443.968079 544.709900,444.116760 546.601196,443.741028 
	C549.187195,443.227295 551.682251,442.255463 554.306335,441.452423 
	C555.344177,445.464417 556.321350,448.680725 556.993591,451.959503 
	C558.327942,458.467224 556.112427,461.533325 548.527771,464.019165 
	C548.100952,464.159088 547.654724,464.239868 546.901428,464.426422 
	C547.659546,471.791504 548.408081,479.063721 549.233276,487.081146 
	C542.505676,486.615906 536.205627,486.180237 528.712097,485.662018 
	C528.154358,475.825592 527.577271,465.647644 527.000244,454.982422 
z"/>
<path fill="#E8D98E" opacity="1.000000" stroke="none" 
	d="
M575.999023,480.720947 
	C575.015564,486.328156 570.844543,489.218201 566.174988,487.554962 
	C563.368896,486.555450 560.365356,485.328491 558.248535,483.349976 
	C554.597290,479.937317 555.458130,475.627777 558.044800,471.963745 
	C560.472839,468.524506 564.252991,467.337128 568.352234,468.189880 
	C573.937927,469.351807 575.974182,472.766571 575.999023,480.720947 
z"/>
<path fill="#000000" opacity="1.000000" stroke="none" 
	d="
M722.187378,445.003174 
	C738.437195,442.166229 754.367554,439.951019 769.977295,436.347198 
	C791.290222,431.426575 811.555908,423.352325 830.862061,413.006683 
	C845.885315,404.956116 860.086060,395.672913 873.008728,384.500336 
	C877.197083,380.879150 881.340088,377.180786 885.759827,373.858215 
	C891.442261,369.586334 897.886963,370.984589 903.990662,372.542297 
	C920.741394,376.817139 935.764465,384.990631 950.391846,393.928772 
	C955.705627,397.175812 960.862671,400.679321 966.279419,404.187622 
	C951.671387,418.700226 935.219238,429.363708 917.372681,437.899841 
	C896.225098,448.014862 873.998352,454.936066 851.412231,461.254486 
	C822.250488,469.412445 792.646423,470.062408 762.996582,468.620850 
	C748.468445,467.914490 734.052551,463.559143 719.743225,460.187561 
	C710.988831,458.124847 702.508789,454.867157 693.959045,451.987244 
	C691.635071,451.204407 689.505432,449.844757 687.550110,447.922699 
	C697.518921,447.281250 707.489685,446.668335 717.454224,445.966553 
	C718.893250,445.865173 720.302124,445.336761 722.187378,445.003174 
z"/>
<path fill="#000000" opacity="1.000000" stroke="none" 
	d="
M858.313232,259.002869 
	C868.777710,259.001312 878.773315,258.847321 888.759949,259.080750 
	C892.616150,259.170898 896.436157,260.319061 900.301331,260.657867 
	C904.085449,260.989594 907.933411,260.654938 911.703796,261.066864 
	C916.315796,261.570709 920.876221,262.547058 926.671814,263.523438 
	C922.155151,270.686249 918.613220,277.311920 914.123840,283.217438 
	C904.105896,296.395477 893.623047,309.220398 883.311340,322.174591 
	C880.770813,325.366150 878.063782,326.782043 873.510498,325.424103 
	C868.272278,323.861908 862.622986,323.434265 857.115356,323.067932 
	C844.121887,322.203644 831.109497,321.603424 818.099365,321.014404 
	C796.989929,320.058624 776.561279,324.198090 756.249329,329.322021 
	C729.993408,335.945343 705.185913,346.263428 681.105835,358.460602 
	C676.254333,360.917938 671.551147,363.667877 665.437439,367.018402 
	C666.508545,364.424713 666.687683,362.858246 667.564941,362.040924 
	C676.984741,353.264404 683.063049,341.614716 692.575195,332.952911 
	C715.280701,312.276978 738.146484,291.680756 766.967712,279.691650 
	C779.724487,274.385071 792.872070,269.682526 806.243408,266.284180 
	C819.439514,262.930328 833.041260,260.905640 846.830383,260.912964 
	C850.500183,260.914917 854.170654,259.674896 858.313232,259.002869 
z"/>
<path fill="#000000" opacity="1.000000" stroke="none" 
	d="
M691.298157,395.291443 
	C730.037415,371.154358 827.853638,348.770050 840.386230,361.585083 
	C789.457458,397.129150 733.239990,412.346436 671.689392,408.255463 
	C671.445496,407.722443 671.201538,407.189423 670.957642,406.656403 
	C677.635620,402.943787 684.313660,399.231201 691.298157,395.291443 
z"/>
<path fill="#000000" opacity="1.000000" stroke="none" 
	d="
M88.316841,390.271545 
	C103.599823,383.664185 118.582253,377.308807 133.531891,370.877228 
	C138.061127,368.928741 141.553589,370.173462 145.043335,373.435303 
	C161.725845,389.028137 179.996063,402.313538 200.191315,413.202179 
	C217.737808,422.662628 236.205231,429.566376 255.056442,435.483765 
	C265.812042,438.859924 277.097137,440.549408 288.144257,442.996399 
	C289.873627,443.379456 291.872894,443.326660 293.282715,444.213776 
	C296.651794,446.333679 300.276550,445.900787 303.883636,445.998108 
	C316.454498,446.337219 329.026123,446.650482 341.595734,447.030731 
	C342.642853,447.062408 343.677063,447.521667 344.808807,448.459656 
	C327.871185,456.672424 309.880402,461.242584 291.661499,464.970428 
	C228.246902,477.945770 168.900299,465.799377 112.783249,435.204712 
	C96.094452,426.106110 79.311546,416.898010 64.785187,403.064850 
	C73.285866,398.462555 80.644791,394.478424 88.316841,390.271545 
z"/>
<path fill="#000000" opacity="1.000000" stroke="none" 
	d="
M276.000305,330.000427 
	C268.662628,328.341766 261.804901,326.390350 254.823593,325.116241 
	C247.318283,323.746490 239.723557,322.519318 232.120438,322.109497 
	C218.724579,321.387451 205.258286,320.593567 191.885971,321.215790 
	C179.404984,321.796570 166.993027,324.074829 154.583282,325.835510 
	C151.116760,326.327271 148.520767,325.685150 146.363434,322.878357 
	C134.012924,306.809814 121.561684,290.818298 109.287857,274.691650 
	C107.248398,272.011993 105.913391,268.796204 103.667877,264.782623 
	C107.611870,263.472473 111.057945,261.770813 114.678902,261.221130 
	C130.521744,258.816162 146.420792,257.947540 162.433945,259.876801 
	C166.259705,260.337708 170.309540,258.782288 174.172836,259.117188 
	C186.539612,260.189301 199.019638,260.929626 211.165497,263.291565 
	C222.479111,265.491669 233.447815,269.517639 244.493073,272.980011 
	C245.897949,273.420380 246.816055,275.345612 248.021591,276.519318 
	C248.598953,277.081451 249.321121,277.494843 249.977707,277.975586 
	C250.269348,277.182068 250.561005,276.388580 251.226181,274.578735 
	C261.938629,279.796875 273.071808,285.056488 284.054321,290.613800 
	C295.962738,296.639587 304.806946,307.075775 315.984924,313.832611 
	C323.406708,318.318939 328.238495,324.809723 334.464417,330.118103 
	C336.492706,331.847504 337.577972,334.682922 338.490631,336.084839 
	C341.186096,338.333832 343.430573,339.775330 345.127014,341.699921 
	C351.069611,348.441711 356.829926,355.344421 362.626923,362.213440 
	C362.887451,362.522186 362.829834,363.099426 363.135651,364.626373 
	C357.747284,362.116241 353.015686,359.922668 348.293060,357.709900 
	C337.622284,352.710175 326.906891,347.802277 316.300873,342.668518 
	C304.481354,336.947388 291.679077,334.449066 279.172943,330.963013 
	C278.240753,330.703186 277.340820,330.327606 276.000305,330.000427 
z"/>
<path fill="#000000" opacity="1.000000" stroke="none" 
	d="
M341.957001,409.000244 
	C323.799316,408.309418 306.204559,407.359436 288.716431,404.128113 
	C267.805969,400.264435 247.525604,394.994171 228.896744,384.369446 
	C217.341125,377.778839 205.600189,371.513306 194.036865,364.935852 
	C192.005447,363.780365 190.440964,361.803955 188.991699,359.626892 
	C251.676819,353.065918 306.742096,372.581238 358.933441,407.808014 
	C352.423828,408.278748 347.435150,408.639496 341.957001,409.000244 
z"/>
<path fill="#000000" opacity="1.000000" stroke="none" 
	d="
M485.413116,467.977295 
	C485.078186,465.740021 484.803986,463.415436 485.386383,461.330017 
	C486.290527,458.092377 487.715790,454.991302 489.033264,451.880219 
	C490.863007,447.559448 494.819000,445.645447 498.830078,447.024536 
	C501.585938,447.972107 505.098328,455.295868 504.262207,458.351166 
	C502.455292,464.953888 498.969818,467.579346 491.348297,467.985962 
	C489.523102,468.083313 487.688171,467.998260 485.413116,467.977295 
z"/>
</svg>